<svg height="512" viewBox="0 0 64 64" width="512" xmlns="http://www.w3.org/2000/svg"><path d="m55 11v32h-46v-32a2.006 2.006 0 0 1 2-2h42a2.006 2.006 0 0 1 2 2z" fill="#acabb1"/><path d="m13 13h38v26h-38z" fill="#5aaae7"/><path d="m13 13h38v26h-38z" fill="#5aaae7"/><path d="m51 13v26h-38c20.507-2.341 32.71-11.381 38-26z" fill="#3d9ae2"/><path d="m36 55h-33v5a1 1 0 0 0 1 1h56a1 1 0 0 0 1-1v-5z" fill="#d8d7da"/><path d="m11 55h50a0 0 0 0 1 0 0v4a0 0 0 0 1 0 0h-48a2 2 0 0 1 -2-2v-2a0 0 0 0 1 0 0z" fill="#c6c5ca"/><path d="m55 43 6 12h-25-8-25l6-12z" fill="#bbbabf"/><path d="m36 55v2a1 1 0 0 1 -1 1h-6a1 1 0 0 1 -1-1v-2z" fill="#898890"/><path d="m38 31h-12a8 8 0 0 0 -8 8h28a8 8 0 0 0 -8-8z" fill="#00ccb3"/><path d="m32 31h4a4 4 0 0 1 -8 0z" fill="#ffb655"/><path d="m20 19h24a12 12 0 1 1 -24 0z" fill="#ffc477"/><path d="m22.01 9a9.853 9.853 0 0 0 -1.81 4 10.048 10.048 0 0 0 -.2 2h10v-10a9.957 9.957 0 0 0 -7.99 4z" fill="#ff9811"/><path d="m43.8 13a9.853 9.853 0 0 0 -1.81-4 9.427 9.427 0 0 0 -.92-1.07 9.969 9.969 0 0 0 -7.07-2.93v10h10a10.048 10.048 0 0 0 -.2-2z" fill="#ff9811"/><path d="m45 15a2.015 2.015 0 0 1 2 2 2.006 2.006 0 0 1 -2 2h-26a2.015 2.015 0 0 1 -2-2 2.006 2.006 0 0 1 2-2z" fill="#ee8700"/><path d="m32 3a2.015 2.015 0 0 0 -2 2v10h4v-10a2.006 2.006 0 0 0 -2-2z" fill="#cc7400"/><path d="m61.9 54.553-5.9-11.789v-31.764a3 3 0 0 0 -3-3h-10.518c-.222-.268-.456-.528-.7-.777a10.916 10.916 0 0 0 -6.954-3.183 2.98 2.98 0 0 0 -5.657 0 10.986 10.986 0 0 0 -7.65 3.96h-10.521a3 3 0 0 0 -3 3v31.764l-5.895 11.789a1 1 0 0 0 -.105.447v5a2 2 0 0 0 2 2h56a2 2 0 0 0 2-2v-5a1 1 0 0 0 -.1-.447zm-32.9 1.447h6v1h-6zm-24.382-2 5-10h44.764l5 10zm38.327-40h-7.945v-7.941a9 9 0 0 1 7.945 7.941zm1.055 2h1a1 1 0 0 1 0 2h-26a1 1 0 0 1 0-2zm-9.184 16a2.982 2.982 0 0 1 -5.632 0zm-2.816-2a11.01 11.01 0 0 1 -10.949-10h21.9a11.01 11.01 0 0 1 -10.951 10zm-16-13a3 3 0 0 0 3 3h.051a12.993 12.993 0 0 0 6.121 10.042 9.011 9.011 0 0 0 -8.113 7.958h-3.059v-24h5a3 3 0 0 0 -3 3zm10 15h1.1a5 5 0 0 0 9.8 0h1.1a7 7 0 0 1 6.92 6h-25.84a7 7 0 0 1 6.92-6zm20.941 6a9.011 9.011 0 0 0 -8.113-7.958 12.993 12.993 0 0 0 6.121-10.042h.051a3 3 0 0 0 0-6h5v24zm-14.941-34a1 1 0 0 1 1 1v9h-2v-9a1 1 0 0 1 1-1zm-3 2.061v7.939h-7.945a9.014 9.014 0 0 1 7.945-7.939zm-19 4.939a1 1 0 0 1 1-1h9.214a10.974 10.974 0 0 0 -.788 2h-6.426a1 1 0 0 0 -1 1v26a1 1 0 0 0 1 1h38a1 1 0 0 0 1-1v-26a1 1 0 0 0 -1-1h-6.421a10.845 10.845 0 0 0 -.785-2h9.206a1 1 0 0 1 1 1v31h-44zm-6 49v-4h23v1a2 2 0 0 0 2 2h6a2 2 0 0 0 2-2v-1h23v4z"/><path d="m10 50h2v2h-2z"/><path d="m14 50h2v2h-2z"/><path d="m18 50h28v2h-28z"/><path d="m48 50h2v2h-2z"/><path d="m52 50h2v2h-2z"/><path d="m15 46h2v2h-2z"/><path d="m11 46h2v2h-2z"/><path d="m19 46h2v2h-2z"/><path d="m23 46h2v2h-2z"/><path d="m27 46h2v2h-2z"/><path d="m31 46h2v2h-2z"/><path d="m35 46h2v2h-2z"/><path d="m39 46h2v2h-2z"/><path d="m43 46h2v2h-2z"/><path d="m47 46h2v2h-2z"/><path d="m51 46h2v2h-2z"/><path d="m32 26a3.969 3.969 0 0 1 -3.2-1.6l-1.6 1.2a6 6 0 0 0 9.6 0l-1.6-1.2a3.969 3.969 0 0 1 -3.2 1.6z"/><path d="m58 30h2v2h-2z"/><path d="m4 30h2v2h-2z"/><path d="m4 24h2v2h-2z"/><path d="m4 18h2v2h-2z"/><path d="m58 24h2v2h-2z"/><path d="m58 18h2v2h-2z"/><path d="m57 5h2v2h-2z"/><path d="m5 5h2v2h-2z"/></svg>