<?xml version="1.0" encoding="iso-8859-1"?>
<!-- Generator: Adobe Illustrator 19.0.0, SVG Export Plug-In . SVG Version: 6.00 Build 0)  -->
<svg version="1.1" id="Capa_1" xmlns="http://www.w3.org/2000/svg" xmlns:xlink="http://www.w3.org/1999/xlink" x="0px" y="0px"
	 viewBox="0 0 498.832 498.832" style="enable-background:new 0 0 498.832 498.832;" xml:space="preserve">
<path style="fill:#48C397;" d="M234.832,321.416L299.584,343c19.608,6.536,34.856,22.136,40.928,41.896l22.32,72.52h-176h-176
	l22.312-72.52c6.08-19.752,21.32-35.36,40.928-41.896l64.76-21.584H234.832z"/>
<path style="fill:#D3A06C;" d="M66.832,201.416v-72c0-66.272,53.728-120,120-120l0,0c66.272,0,120,53.728,120,120v72H66.832z"/>
<path style="fill:#B27946;" d="M186.832,9.416c-4.048,0-8.056,0.216-12,0.608c60.64,6.024,108,57.168,108,119.392v72h24v-72
	C306.832,63.144,253.104,9.416,186.832,9.416z"/>
<rect x="170.832" y="393.416" style="fill:#ECECEC;" width="32" height="32"/>
<path style="fill:#0FA196;" d="M306.832,457.416h56l-22.312-72.52c-6.08-19.752-21.32-35.36-40.928-41.896l-64.76-21.584
	l56.064,56.064c5.136,5.136,8.376,11.872,9.176,19.096L306.832,457.416z"/>
<g>
	<path style="fill:#F9E0A6;" d="M138.832,281.416v40c0,0,16,24,48,24s48-24,48-24v-40H138.832z"/>
	<path style="fill:#F9E0A6;" d="M274.832,177.416h-176c-17.672,0-32,14.328-32,32s14.328,32,32,32h176c17.672,0,32-14.328,32-32
		S292.504,177.416,274.832,177.416z"/>
	<path style="fill:#F9E0A6;" d="M98.832,137.416v80c0,48.6,39.4,88,88,88l0,0c48.6,0,88-39.4,88-88V188.64
		c0-33.16-11.288-65.328-32-91.224l0,0l-7.384,6.152c-26.24,21.872-59.328,33.848-93.488,33.848H98.832z"/>
</g>
<path style="fill:#EABD8C;" d="M242.832,97.416l-7.384,6.152c-2.568,2.136-5.248,4.104-7.944,6.056
	c15.12,23.48,23.328,50.872,23.328,79.016v28.776c0,44.52-33.088,81.224-76,87.088c3.936,0.536,7.92,0.912,12,0.912
	c48.6,0,88-39.4,88-88V188.64C274.832,155.48,263.544,123.312,242.832,97.416z"/>
<rect x="402.832" y="145.416" style="fill:#B6C1CE;" width="32" height="40"/>
<circle style="fill:#ECECEC;" cx="418.832" cy="81.416" r="72"/>
<polygon style="fill:#92E0C0;" points="458.832,65.416 434.832,65.416 434.832,49.416 434.832,41.416 402.832,41.416 
	402.832,49.416 402.832,65.416 378.832,65.416 378.832,97.416 402.832,97.416 402.832,113.416 402.832,121.416 434.832,121.416 
	434.832,113.416 434.832,97.416 458.832,97.416 "/>
<path d="M498.832,81.416c0-44.112-35.888-80-80-80s-80,35.888-80,80c0,35.752,23.576,66.096,56,76.312v35.688h16v232
	c0,30.88-25.12,56-56,56h-104c-15.216,0-29.016-6.12-39.12-16h161.952l-25.504-82.872c-6.008-19.536-20.096-35.52-38.424-44.072
	c18.216-25.056,29.096-55.776,29.096-89.056v-24c0-13.232-10.768-24-24-24v-72c0-70.576-57.424-128-128-128s-128,57.424-128,128v72
	c-13.232,0-24,10.768-24,24v24c0,33.28,10.88,64,29.088,89.064c-18.32,8.544-32.408,24.528-38.424,44.072L0,465.416h191.008
	c12.936,19.28,34.92,32,59.824,32h104c39.696,0,72-32.304,72-72v-232h16v-35.688C475.256,147.512,498.832,117.168,498.832,81.416z
	 M332.872,387.248L352,449.416h-54.104l-7.128-56.992l-15.872,1.984l6.872,55.008h-81.456c-2.376-4.976-4.024-10.352-4.84-16h15.36
	v-34.088c34.8-5.56,65.632-22.904,88.344-47.888C315.256,357.552,327.792,370.736,332.872,387.248z M186.832,297.416
	c-44.112,0-80-35.888-80-80v-72h35.128c35.96,0,70.984-12.68,98.608-35.704l0.928-0.768c16.392,23.208,25.336,51.2,25.336,79.696
	v28.776C266.832,261.528,230.944,297.416,186.832,297.416z M186.832,313.416c14.288,0,27.808-3.224,40-8.84v14.16
	c-4.08,4.944-17.424,18.68-40,18.68c-22.632,0-35.92-13.696-40-18.68v-14.168C159.024,310.192,172.544,313.416,186.832,313.416z
	 M136.104,330.76c7.136,7.936,23.96,22.656,50.728,22.656s43.592-14.72,50.728-22.656l45.112,15.04
	c-24.608,24.464-58.48,39.616-95.84,39.616S115.6,370.264,90.992,345.8L136.104,330.76z M186.832,401.416
	c2.704,0,5.336-0.264,8-0.408v16.408h-16v-16.408C181.496,401.152,184.128,401.416,186.832,401.416z M322.832,225.416v24
	c0,31.4-10.8,60.272-28.744,83.32l-51.256-17.088v-20.416c15.768-11.384,27.92-27.4,34.488-46.064
	c18.176-1.144,33.144-14.32,36.704-31.752h0.808C319.24,217.416,322.832,221.008,322.832,225.416z M282.752,186.864
	c9.336,3.296,16.08,12.112,16.08,22.552c0,10.888-7.328,20-17.28,22.928c0.768-4.88,1.28-9.84,1.28-14.928V188.64
	C282.832,188.048,282.76,187.456,282.752,186.864z M186.832,17.416c61.76,0,112,50.24,112,112v48.208
	c-4.992-3.784-10.84-6.424-17.264-7.52c-3.456-28.256-14.608-55.328-32.488-77.68l-5.096-6.376l-13.656,11.376
	c-24.76,20.632-56.144,31.992-88.368,31.992H90.832v40.808c-5.944,1.216-11.328,3.856-16,7.392v-48.2
	C74.832,67.656,125.072,17.416,186.832,17.416z M92.112,232.344c-9.952-2.928-17.28-12.04-17.28-22.928
	c0-10.416,6.712-19.216,16-22.528v30.528C90.832,222.504,91.344,227.464,92.112,232.344z M50.832,225.416c0-4.408,3.592-8,8-8h0.808
	c3.552,17.432,18.52,30.6,36.704,31.752c6.568,18.672,18.72,34.688,34.488,46.064v20.416l-51.256,17.088
	c-17.944-23.048-28.744-51.92-28.744-83.32V225.416z M91.896,449.416l6.872-55.008l-15.872-1.984l-7.128,56.992H21.664
	l19.128-62.168c5.08-16.512,17.616-29.696,33.704-35.808c22.712,24.984,53.544,42.328,88.344,47.888v34.088h16.472
	c0.616,5.552,1.92,10.896,3.728,16H91.896z M426.832,161.416v16h-16v-16H426.832z M418.832,145.416c-35.288,0-64-28.712-64-64
	s28.712-64,64-64s64,28.712,64,64S454.12,145.416,418.832,145.416z"/>
<path d="M442.832,57.416v-24h-48v24h-24v48h24v24h48v-24h24v-48H442.832z M450.832,89.416h-24v24h-16v-24h-24v-16h24v-24h16v24h24
	V89.416z"/>
<g>
</g>
<g>
</g>
<g>
</g>
<g>
</g>
<g>
</g>
<g>
</g>
<g>
</g>
<g>
</g>
<g>
</g>
<g>
</g>
<g>
</g>
<g>
</g>
<g>
</g>
<g>
</g>
<g>
</g>
</svg>
