<svg height="491pt" viewBox="-27 0 491 491.6936" width="491pt" xmlns="http://www.w3.org/2000/svg"><path d="m402.328125 11.570312c14.398437.121094 25.980469 11.371094 25.859375 25.121094l-.550781 85.578125c-.109375 13.75-11.871094 24.800781-26.269531 24.679688l-66.871094-.398438-71.558594 56.527344 3.5-57.097656-15.71875-.300781c-14.402344-.109376-25.980469-11.359376-25.863281-25.109376l.550781-85.582031c.109375-13.75 11.878906-24.796875 26.269531-24.679687l131.101563 1.101562zm0 0" fill="#fedb41"/><path d="m151.316406 244.660156-.449218 15.191406h-99.890626v8.757813c0 11.128906-8.78125 20.570313-19.898437 20.691406-.070313 0-.152344.007813-.222656.007813-11.117188.003906-20.136719-9.007813-20.136719-20.128906v-112.179688c-1.074219-10.664062 2.417969-21.289062 9.605469-29.238281 7.1875-7.953125 17.402343-12.492188 28.121093-12.5h20.390626l32.332031 31.449219 33.519531-31.449219h19.210938c1.277343 0 2.546874.066406 3.820312.1875 20.832031 2.117187 36.007812 20.71875 33.898438 41.550781v112.160156c0 11.128906-9.023438 20.148438-20.148438 20.148438-11.128906 0-20.152344-9.019532-20.152344-20.148438zm0 0" fill="#00efd1"/><path d="m101.265625 459.871094c.003906 11.898437-9.527344 21.609375-21.425781 21.824218-11.898438.21875-21.777344-9.140624-22.203125-21.035156l-5.96875-200.808594h99.199219l-5.96875 200.808594c-.429688 11.894532-10.304688 21.253906-22.203126 21.035156-11.902343-.214843-21.433593-9.925781-21.429687-21.824218zm0 0" fill="#00acea"/><path d="m136.386719 48.191406v14.597656c-.328125 19.921876-16.570313 35.898438-36.496094 35.898438-19.921875 0-36.164063-15.976562-36.492187-35.898438v-14.597656c-.21875-13.183594 6.6875-25.460937 18.070312-32.113281 11.378906-6.65625 25.464844-6.65625 36.847656 0 11.378906 6.652344 18.289063 18.929687 18.070313 32.113281zm0 0" fill="#fedb41"/><g fill="#083863"><path d="m146.355469 62.789062v-14.597656c0-25.683594-20.816407-46.5-46.5-46.5-25.679688 0-46.5 20.816406-46.5 46.5v14.597656c0 25.683594 20.820312 46.5 46.5 46.5 25.683593 0 46.5-20.816406 46.5-46.5zm-73 0v-14.597656c0-14.636718 11.867187-26.5 26.5-26.5 14.636719 0 26.5 11.863282 26.5 26.5v14.597656c0 14.636719-11.863281 26.5-26.5 26.5-14.632813 0-26.5-11.863281-26.5-26.5zm0 0"/><path d="m158.527344 105.363281c-1.671875-.15625-3.097656-.363281-4.628906-.363281h-19.210938c-2.558594.046875-5 1.0625-6.84375 2.835938l-26.550781 24.980468-25.484375-24.886718c-1.855469-1.84375-4.355469-2.894532-6.972656-2.929688h-20.390626c-26.507812.074219-47.992187 21.53125-48.097656 48.039062 0 1.457032.007813 3.035157.007813 4.4375v111.703126c.109375 16.667968 13.652343 30.125 30.320312 30.128906.171875 0 .441407 0 .625-.015625 3.933594-.066407 7.816407-.921875 11.417969-2.511719l4.902344 164.234375c.445312 12.488281 8.160156 23.558594 19.722656 28.300781 11.5625 4.738282 24.828125 2.273438 33.914062-6.308594 9.09375 8.585938 22.371094 11.046876 33.9375 6.292969 11.566407-4.757812 19.273438-15.847656 19.699219-28.34375l4.875-164.011719c3.65625 1.566407 7.59375 2.367188 11.570313 2.363282 16.617187-.03125 30.058594-13.53125 30.015625-30.148438v-111.683594c3-26.0625-16.652344-49.449218-42.828125-52.113281zm-35.441406 366.328125c-3.125-.003906-6.121094-1.253906-8.324219-3.472656-2.199219-2.21875-3.425781-5.222656-3.40625-8.347656v-164.871094c0-5.523438-4.476563-10-10-10-5.523438 0-10 4.476562-10 10v164.871094c-.023438 4.746094-2.871094 9.027344-7.246094 10.875-4.375 1.851562-9.429687.914062-12.851563-2.375-2.195312-2.070313-3.492187-4.921875-3.609374-7.9375l-5.679688-190.433594h78.59375l-5.660156 190.378906c-.214844 6.351563-5.460938 11.371094-11.816406 11.3125zm58.453124-315.703125c-.078124.335938-.140624.671875-.183593 1.011719v112.160156c0 5.523438-4.476563 10-10 10-5.523438 0-10-4.476562-10-10v-24.367187l.117187-3.875c.019532-.613281-.117187-1.210938-.117187-1.796875v-45.03125c0-5.523438-4.476563-10-10-10-5.523438 0-10 4.476562-10 10v50.4375l-.199219 5.472656h-79.78125l-.09375-9.601562c-.007812-.40625.074219-.882813.074219-1.277344v-45.03125c0-5.523438-4.476563-10-10-10-5.523438 0-10 4.476562-10 10v74.519531c.046875 5.734375-4.46875 10.46875-10.199219 10.691406-.097656 0-.472656 0-.574219.007813-5.574219-.085938-10.085937-4.554688-10.226562-10.128906v-112.179688c.0625-.335938.105469-.675781.128906-1.019531-.089844-.898438-.046875-1.972657-.046875-2.941407.050781-15.453124 12.554688-27.972656 28.007812-28.039062h16.332032l29.417968 28.746094c.066407.066406.136719.1875.207032.25.128906.121094.261718.269531.398437.382812.136719.113282.246094.214844.371094.308594.144531.109375.289063.21875.433594.316406.144531.101563.261719.175782.398437.257813.136719.082031.292969.175781.445313.253906.148437.082031.285156.148437.429687.21875.148438.070313.292969.136719.445313.199219.148437.0625.304687.125.464843.179687.15625.058594.289063.101563.4375.148438.164063.050781.328126.097656.492188.136719.144531.035156.289062.070312.4375.097656.167969.035156.339844.066406.507812.09375.148438.019531.292969.039062.4375.054687.171876.019531.347657.03125.519532.042969.144531.007812.292968.011719.4375.011719.175781 0 .347656 0 .519531-.007813.148437-.003906.292969-.011718.4375-.027344.175781-.011718.347656-.03125.519531-.054687.144532-.019531.289063-.042969.433594-.070313.171875-.03125.339844-.066406.511719-.105468.140625-.035156.285156-.074219.425781-.113282.171875-.046874.335938-.097656.5-.15625.140625-.050781.277344-.101562.414062-.152343.167969-.066407.332032-.136719.496094-.210938.132813-.058593.261719-.121093.398438-.1875.160156-.085937.320312-.171875.480468-.265625.125-.074218.25-.148437.375-.230468.15625-.097657.308594-.203126.457032-.3125.121094-.089844.242187-.179688.363281-.273438.140625-.113281.277344-.230469.417969-.355469.066406-.058593.136718-.242187.203125-.296875l30.632812-28.878906h15.253907c.898437 0 1.773437.179688 2.742187.269531 15.339844 1.644531 26.464844 15.375 24.898437 30.722657zm0 0"/><path d="m402.410156 1.414062-150.652344-1.414062h-.316406c-9.347656.0117188-18.332031 3.589844-25.128906 10.007812-6.941406 6.425782-10.910156 15.441407-10.957031 24.902344v.015625l-.523438 85.558594c-.070312 9.121094 3.515625 17.894531 9.953125 24.359375 6.808594 6.902344 16.089844 10.804688 25.785156 10.835938l5.246094.097656-2.863281 46.691406c-.242187 3.9375 1.855469 7.648438 5.351563 9.476562 3.492187 1.824219 7.738281 1.425782 10.832031-1.019531l68.808593-54.355469 63.339844.378907c9.429688.136719 18.546875-3.394531 25.421875-9.851563 6.90625-6.390625 10.859375-15.355468 10.929688-24.761718l.550781-85.558594c.085938-9.429688-3.71875-18.476563-10.519531-25.007813-6.765625-6.582031-15.816407-10.292969-25.257813-10.355469zm15.226563 120.773438c-.050781 3.9375-1.722657 7.675781-4.625 10.335938-3.105469 3.003906-7.265625 4.671874-11.585938 4.652343l-66.867187-.175781h-.0625c-2.222656-.082031-4.410156.597656-6.199219 1.929688l-54.007813 42.554687 2.128907-34.835937c.171875-2.722657-.777344-5.402344-2.625-7.410157-1.847657-2.011719-4.433594-3.179687-7.164063-3.238281l-15.71875-.308594-.117187-.003906c-4.40625.011719-8.632813-1.742188-11.738281-4.867188-2.703126-2.695312-4.21875-6.363281-4.199219-10.179687l.550781-85.582031c.050781-3.972656 1.722656-7.753906 4.625-10.46875 3.082031-2.925782 7.164062-4.566406 11.414062-4.589844h.148438l150.648438 1.414062c4.292968.027344 8.410156 1.710938 11.492187 4.703126 2.863281 2.726562 4.472656 6.515624 4.453125 10.472656zm0 0"/><path d="m336.355469 66h-20v-21h-20v60h20v-19h20v19h20v-60h-20zm0 0"/></g></svg>